<?xml version="1.0" encoding="UTF-8"?>
<svg width="683px" height="151px" viewBox="0 0 683 151" version="1.1" xmlns="http://www.w3.org/2000/svg" xmlns:xlink="http://www.w3.org/1999/xlink">
    <!-- Generator: Sketch 57.1 (83088) - https://sketch.com -->
    <title>Group 7 landscape Tone</title>
    <desc>Created with Sketch.</desc>
    <defs>
        <linearGradient x1="-20.563014%" y1="0%" x2="98.6667267%" y2="100%" id="linearGradient-1">
            <stop stop-color="#22025E" offset="0%"></stop>
            <stop stop-color="#A30DC6" offset="100%"></stop>
        </linearGradient>
        <path d="M115.248868,34.1994837 C104.259028,73.5471647 86.9455807,90.3848102 75.355733,101.937928 C66.6968035,69.5983597 51.0436707,28.8927921 31.080191,7.45251705 C18.1006204,-4.441919 13.5751692,-0.314348084 8.3652071,7.45251705 C-9.57648247,34.1994837 5.76182853,139.030913 13.5155999,139.030913 C38.2769324,139.030913 19.6406749,117.946159 39.1107661,116.906689 C57.20437,115.941097 65.1636965,141.007494 78.3425342,144.14733 C78.9160707,144.205694 79.4660774,144.184269 79.9991722,144.14733 C80.3499117,144.17762 80.7013866,144.205694 81.0535968,144.205694 C81.2888938,144.205694 81.4962493,144.113346 81.6844869,143.957462 C95.5581861,141.851186 90.0683636,131.820237 108.110496,132.606304 C127.493822,133.449996 128.990152,149 136.890328,149 C144.790504,149 153.048177,58.3805476 140.677856,36.2939387 C133.591005,23.309795 122.21513,17.5568774 115.248868,34.1994837 Z" id="path-2"></path>
        <linearGradient x1="50%" y1="27.9142497%" x2="46.8239429%" y2="77.4662177%" id="linearGradient-4">
            <stop stop-color="#FF4F00" offset="0%"></stop>
            <stop stop-color="#FF2700" stop-opacity="0.233554121" offset="100%"></stop>
        </linearGradient>
        <linearGradient x1="24.4735228%" y1="44.7646686%" x2="57.2061441%" y2="54.6336375%" id="linearGradient-5">
            <stop stop-color="#9C0DC1" offset="0%"></stop>
            <stop stop-color="#FF4F00" offset="100%"></stop>
        </linearGradient>
    </defs>
    <g id="Page-1" stroke="none" stroke-width="1" fill="none" fill-rule="evenodd">
        <g id="Desktop-Branding" transform="translate(-735.000000, -743.000000)">
            <g id="Group-15" transform="translate(215.000000, 259.000000)">
                <g id="Group-7-landscape-Tone" transform="translate(520.000000, 484.000000)">
                    <g id="Group-2">
                        <mask id="mask-3" fill="white">
                            <use xlink:href="#path-2"></use>
                        </mask>
                        <use id="Mask" fill="url(#linearGradient-1)" xlink:href="#path-2"></use>
                        <path d="M14,-4.81133196 C14.8843221,-21.4953484 28.9724733,-12.6847054 56.2644537,21.620597 L81,86.8135547 L76.9269425,102 C53.2625186,81.8700504 32.2868711,46.266273 14,-4.81133196 Z" id="Rectangle" fill="url(#linearGradient-4)" mask="url(#mask-3)"></path>
                    </g>
                    <path d="M176,78 L180.146023,30 L190.16558,30 L198.388527,57.5568345 C199.977836,62.9438849 201.083442,67.2258993 202.46545,72.9582734 L202.603651,72.9582734 C203.916558,67.294964 205.022164,62.8057554 206.542373,57.5568345 L214.765319,30 L224.853977,30 L229,78 L222.159061,78 L220.016949,49.3381295 C219.671447,44.0892086 219.464146,39.7381295 219.256845,34.4201439 L219.118644,34.3510791 C217.736636,39.5309353 216.492829,44.0892086 214.972621,49.3381295 L206.611473,78 L198.112125,78 L189.750978,49.3381295 C188.29987,44.1582734 186.917862,39.4618705 185.535854,34.4201439 L185.466754,34.4201439 C185.259452,39.4618705 185.052151,44.0892086 184.637549,49.3381295 L182.495437,78 L176,78 Z M267,60.8265896 C267,75.0462428 261.318707,79 251.82679,79 C242.265589,79 237,75.4624277 237,61.1040462 C237,46.8843931 242.612009,43 252.103926,43 C261.595843,43 267,46.4682081 267,60.8265896 Z M261,61.0691489 C261,50.143617 257.659503,48 252.038536,48 C246.486116,48 243.077071,50.143617 243.077071,60.9308511 C243.077071,71.856383 246.417568,74 252.038536,74 C257.590955,74 261,71.9255319 261,61.0691489 Z M277,78 L277,27 L283,27 L283,78 L277,78 Z M317.823678,72.7786408 L318.367758,77.6019417 C314.899244,78.4407767 311.43073,79 307.486146,79 C298.440806,79 293,76.1339806 293,61.2446602 C293,46.9145631 298.644836,43 307.418136,43 C316.191436,43 320,46.215534 320,58.8679612 C320,60.1262136 319.93199,61.2446602 319.86398,62.6427184 L299.256927,62.6427184 C299.392947,72.4990291 302.31738,73.9669903 308.642317,73.9669903 C311.974811,73.9669903 314.627204,73.4776699 317.823678,72.7786408 Z M299,58 L314,58 C313.931507,49.8120805 311.808219,48 306.876712,48 C302.013699,48 299.273973,50.0134228 299,58 Z M350.168675,72.0410959 L350.722892,76.7671233 C348.228916,77.4520548 345.042169,78 342.271084,78 C332.710843,78 328,74.4383562 328,60.6027397 C328,46.6986301 333.957831,43 342.756024,43 C345.596386,43 348.506024,43.4794521 351,44.0958904 L350.376506,48.8219178 C348.090361,48.2054795 345.73494,47.8630137 343.171687,47.8630137 C337.837349,47.8630137 334.373494,49.7808219 334.373494,60.4657534 C334.373494,70.8767123 337.144578,73.0684932 343.240964,73.0684932 C345.319277,73.0684932 347.88253,72.6575342 350.168675,72.0410959 Z M358,44 L364.483173,44 L364.483173,66.5199203 C364.483173,71.9581673 366.295673,73.7709163 370.338942,73.7709163 C373.266827,73.7709163 376.612981,72.376494 380.586538,69.8665339 L380.586538,44 L387,44 L387,78.3027888 L381.701923,78.3027888 L381.283654,74.6772908 C377.03125,77.2569721 372.848558,79 368.387019,79 C361.276442,79 358,75.5836653 358,67.6354582 L358,44 Z M399,78 L399,27 L405,27 L405,78 L399,78 Z M433.636842,57.1780822 L433.636842,53.7534247 C433.636842,49.7808219 431.721053,47.8630137 427.205263,47.8630137 C423.921053,47.8630137 420.978947,48.4109589 417.763158,49.0958904 L417.147368,44.369863 C420.773684,43.5479452 424.331579,43 428.3,43 C436.784211,43 440,46.3561644 440,53.4109589 L440,77.3150685 L434.8,77.3150685 L434.389474,74.1643836 C430.968421,76.2191781 427.821053,78 423.510526,78 C418.036842,78 414,74.8493151 414,68.2739726 C414,61.2191781 418.378947,57.1780822 430.557895,57.1780822 L433.636842,57.1780822 Z M434,62 L431.241379,62 C422.551724,62 420,64.1627907 420,68.4883721 C420,72.3953488 422.137931,74 425.103448,74 C428.137931,74 430.62069,72.6744186 434,70.4418605 L434,62 Z M451,78 L451,43.9009901 L456.153543,43.9009901 L456.555118,47.7128713 C459.566929,45.2871287 462.377953,43 465.389764,43 C466.46063,43 467.26378,43.2079208 468,43.6237624 L467.129921,49.5148515 C466.326772,49.0990099 465.456693,48.8910891 464.385827,48.8910891 C462.511811,48.8910891 460.30315,50.2079208 457.224409,52.3564356 L457.224409,78 L451,78 Z M500.806061,78 L500.806061,35.2489209 L487,35.2489209 L487,30 L521,30 L521,35.2489209 L507.262626,35.2489209 L507.262626,78 L500.806061,78 Z M527,44 L533.483173,44 L533.483173,66.5199203 C533.483173,71.9581673 535.295673,73.7709163 539.338942,73.7709163 C542.266827,73.7709163 545.612981,72.376494 549.586538,69.8665339 L549.586538,44 L556,44 L556,78.3027888 L550.701923,78.3027888 L550.283654,74.6772908 C546.03125,77.2569721 541.848558,79 537.387019,79 C530.276442,79 527,75.5836653 527,67.6354582 L527,44 Z M568,78 L568,43.6287425 L573.30661,43.6287425 L573.720113,47.261477 C577.924051,44.746507 581.783404,43 585.918425,43 C590.88045,43 593.154712,45.0259481 594.464135,47.6107784 C599.219409,44.6766467 603.078762,43 607.213783,43 C613.829817,43 617,46.3532934 617,54.3173653 L617,78 L610.659634,78 L610.659634,55.4351297 C610.659634,49.9860279 608.867792,48.239521 605.284107,48.239521 C602.66526,48.239521 599.632911,49.5668663 595.428973,52.2215569 C595.635724,53.1297405 595.704641,53.8982036 595.704641,55.2954092 L595.704641,78 L589.295359,78 L589.295359,55.4351297 C589.295359,49.9860279 587.503516,48.239521 584.057665,48.239521 C581.369902,48.239521 578.337553,49.5668663 574.409283,52.0818363 L574.409283,78 L568,78 Z M656,60.8265896 C656,75.0462428 650.318707,79 640.82679,79 C631.265589,79 626,75.4624277 626,61.1040462 C626,46.8843931 631.612009,43 641.103926,43 C650.595843,43 656,46.4682081 656,60.8265896 Z M650.079904,61.0691489 C650.079904,50.143617 646.66092,48 641.039952,48 C635.487533,48 632,50.143617 632,60.9308511 C632,71.856383 635.418984,74 641.039952,74 C646.592371,74 650.079904,71.9255319 650.079904,61.0691489 Z M666,78 L666,43.9009901 L671.153543,43.9009901 L671.555118,47.7128713 C674.566929,45.2871287 677.377953,43 680.389764,43 C681.46063,43 682.26378,43.2079208 683,43.6237624 L682.129921,49.5148515 C681.326772,49.0990099 680.456693,48.8910891 679.385827,48.8910891 C677.511811,48.8910891 675.30315,50.2079208 672.224409,52.3564356 L672.224409,78 L666,78 Z M178,150 L178,102 L191.110132,102 C202.922907,102 207.566079,104.486331 207.566079,113.257554 C207.566079,119.542446 204.698238,122.926619 200.123348,124.515108 C204.903084,125.343885 209,128.520863 209,135.979856 C209,145.372662 203.674009,150 191.519824,150 L178,150 Z M184,145 L191.335849,145 C199.283019,145 202,142.166667 202,136.365079 C202,130.630952 199.622642,128 190.656604,128 L184,128 L184,145 Z M184,123 L190.703252,123 C197.199187,123 201,120.894737 201,114.368421 C201,108.403509 198.304878,107 190.565041,107 L184,107 L184,123 Z M246,132.82659 C246,147.046243 240.318707,151 230.82679,151 C221.265589,151 216,147.462428 216,133.104046 C216,118.884393 221.612009,115 231.103926,115 C240.595843,115 246,118.468208 246,132.82659 Z M240.010793,132.930851 C240.010793,122.005319 236.626364,120 231.005396,120 C225.452977,120 222,122.143617 222,132.930851 C222,143.856383 225.521525,146 231.142493,146 C236.694912,146 240.010793,143.787234 240.010793,132.930851 Z M272.636842,130.178082 L272.636842,126.753425 C272.636842,122.780822 270.721053,120.863014 266.205263,120.863014 C262.921053,120.863014 259.978947,121.410959 256.763158,122.09589 L256.147368,117.369863 C259.773684,116.547945 263.331579,116 267.3,116 C275.784211,116 279,119.356164 279,126.410959 L279,150.315068 L273.8,150.315068 L273.389474,147.164384 C269.968421,149.219178 266.821053,151 262.510526,151 C257.036842,151 253,147.849315 253,141.273973 C253,134.219178 257.378947,130.178082 269.557895,130.178082 L272.636842,130.178082 Z M273,134 L270.241379,134 C261.551724,134 259,136.162791 259,140.488372 C259,144.395349 261.137931,146 264.103448,146 C267.137931,146 269.62069,144.674419 273,142.44186 L273,134 Z M290,150 L290,115.90099 L295.153543,115.90099 L295.555118,119.712871 C298.566929,117.287129 301.377953,115 304.389764,115 C305.46063,115 306.26378,115.207921 307,115.623762 L306.129921,121.514851 C305.326772,121.09901 304.456693,120.891089 303.385827,120.891089 C301.511811,120.891089 299.30315,122.207921 296.224409,124.356436 L296.224409,150 L290,150 Z M334.657895,150.304813 L334.241627,146.759358 C330.495215,149.192513 327.026316,151 323.002392,151 C315.578947,151 311,147.106952 311,133.620321 C311,120.064171 317.660287,115.475936 325.430622,115.475936 C328.552632,115.475936 331.188995,116.31016 333.825359,117.700535 L333.894737,117.631016 C333.617225,114.780749 333.547847,112.278075 333.547847,109.775401 L333.547847,99 L340,99 L340,150.304813 L334.657895,150.304813 Z M334,142.291209 L334,123.266484 C331.448276,121.824176 329.37931,121 326.758621,121 C322.275862,121 318,123.60989 318,133.706044 C318,143.802198 320.62069,146 325.172414,146 C327.724138,146 330.413793,144.695055 334,142.291209 Z M370,150 L370,102 L383.263033,102 C394.327014,102 399,104.348201 399,115.053237 C399,125.551079 393.914692,129.694964 382.507109,129.694964 L376.459716,129.694964 L376.459716,150 L370,150 Z M377,125 L383.26383,125 C390.004255,125 393,122.328125 393,115.507813 C393,108.617188 390.412766,107 383.468085,107 L377,107 L377,125 Z M435,132.82659 C435,147.046243 429.318707,151 419.82679,151 C410.265589,151 405,147.462428 405,133.104046 C405,118.884393 410.612009,115 420.103926,115 C429.595843,115 435,118.468208 435,132.82659 Z M429.031879,133 C429.031879,122.074468 425.636907,120 420.01594,120 C414.46352,120 411,122.143617 411,132.930851 C411,143.856383 414.394972,146 420.01594,146 C425.568359,146 429.031879,143.856383 429.031879,133 Z M445,150 L445,115.90099 L450.153543,115.90099 L450.555118,119.712871 C453.566929,117.287129 456.377953,115 459.389764,115 C460.46063,115 461.26378,115.207921 462,115.623762 L461.129921,121.514851 C460.326772,121.09901 459.456693,120.891089 458.385827,120.891089 C456.511811,120.891089 454.30315,122.207921 451.224409,124.356436 L451.224409,150 L445,150 Z M463,115.753425 L468.156794,115.753425 L468.156794,105.890411 L474.567944,105 L474.567944,115.753425 L482.372822,115.753425 L482.372822,120.547945 L474.567944,120.547945 L474.567944,140.479452 C474.567944,143.972603 475.682927,145.136986 478.33101,145.136986 C479.794425,145.136986 481.04878,144.863014 482.372822,144.452055 L483,149.109589 C481.118467,149.657534 479.027875,150 476.58885,150 C470.38676,150 468.156794,147.671233 468.156794,142.054795 L468.156794,120.547945 L463,120.547945 L463,115.753425 Z M507.636842,130.178082 L507.636842,126.753425 C507.636842,122.780822 505.721053,120.863014 501.205263,120.863014 C497.921053,120.863014 494.978947,121.410959 491.763158,122.09589 L491.147368,117.369863 C494.773684,116.547945 498.331579,116 502.3,116 C510.784211,116 514,119.356164 514,126.410959 L514,150.315068 L508.8,150.315068 L508.389474,147.164384 C504.968421,149.219178 501.821053,151 497.510526,151 C492.036842,151 488,147.849315 488,141.273973 C488,134.219178 492.378947,130.178082 504.557895,130.178082 L507.636842,130.178082 Z M508,134 L505.241379,134 C496.551724,134 494,136.162791 494,140.488372 C494,144.395349 496.137931,146 499.103448,146 C502.137931,146 504.62069,144.674419 508,142.44186 L508,134 Z M526,150 L526,99 L532,99 L532,150 L526,150 Z" id="MolecularTumorBoardPortal" fill="url(#linearGradient-5)" fill-rule="nonzero"></path>
                </g>
            </g>
        </g>
    </g>
</svg>